# xmcd CD database file
#
# Track frame offsets:
#	150
#	21122
#	44236
#	60765
#	84478
#	103038
#	118788
#	133104
#	157548
#	178318
#	198407
#	220629
#
# Disc length: 3248 seconds
#
# Revision: 1
# Processed by: cddbd v1.5.2PL0 Copyright (c) Steve Scherf et al.
# Submitted via: CDex 1.51
#
DISCID=9f0cae0c
DTITLE=Chris Daniels - The Spark
DYEAR=2003
DGENRE=Blues
TTITLE0=50/50
TTITLE1=The Spark
TTITLE2=Biggest Heartache On The Block
TTITLE3=Way Out West
TTITLE4=She's The Reason
TTITLE5=Kelly Jean
TTITLE6=Jump
TTITLE7=If I'd Only Taken You Dancing
TTITLE8=In The Night
TTITLE9=At Last
TTITLE10=Tuesday Man
TTITLE11=I'm Still Looking
EXTD=YEAR: 2003
EXTT0=
EXTT1=
EXTT2=
EXTT3=
EXTT4=
EXTT5=
EXTT6=
EXTT7=
EXTT8=
EXTT9=
EXTT10=
EXTT11=
PLAYORDER=
